<svg xmlns="http://www.w3.org/2000/svg" viewBox="0 0 512 512" width="100%" height="100%">
  <defs>
    <radialGradient id="bgGrad" cx="50%" cy="50%" r="50%">
      <stop offset="0%" stop-color="#0f172a" />
      <stop offset="100%" stop-color="#020617" />
    </radialGradient>
    <linearGradient id="primaryShield" x1="0%" y1="0%" x2="100%" y2="100%">
      <stop offset="0%" stop-color="#34d399" />
      <stop offset="50%" stop-color="#059669" />
      <stop offset="100%" stop-color="#047857" />
    </linearGradient>
    <linearGradient id="aiGlow" x1="0%" y1="0%" x2="0%" y2="100%">
      <stop offset="0%" stop-color="#6ee7b7" />
      <stop offset="100%" stop-color="#10b981" />
    </linearGradient>
    <linearGradient id="metallicF" x1="0%" y1="100%" x2="100%" y2="0%">
      <stop offset="0%" stop-color="#ffffff" />
      <stop offset="60%" stop-color="#e2e8f0" />
      <stop offset="100%" stop-color="#94a3b8" />
    </linearGradient>
    <filter id="neonShadow" x="-20%" y="-20%" width="140%" height="140%">
      <feGaussianBlur stdDeviation="15" result="blur" />
      <feComposite in="SourceGraphic" in2="blur" operator="over" />
    </filter>
  </defs>
  <rect width="512" height="512" rx="128" fill="url(#bgGrad)" />
  <circle cx="256" cy="256" r="210" fill="none" stroke="url(#aiGlow)" stroke-width="4" stroke-dasharray="10 15" opacity="0.4" />
  <circle cx="256" cy="256" r="190" fill="none" stroke="url(#primaryShield)" stroke-width="6" opacity="0.7" />
  <line x1="256" y1="20" x2="256" y2="492" stroke="#10b981" stroke-width="1.5" stroke-dasharray="4 8" opacity="0.2" />
  <line x1="20" y1="256" x2="492" y2="256" stroke="#10b981" stroke-width="1.5" stroke-dasharray="4 8" opacity="0.2" />
  <circle cx="256" cy="256" r="160" fill="#0b1329" stroke="url(#primaryShield)" stroke-width="12" filter="url(#neonShadow)" />
  <rect x="200" y="160" width="36" height="192" rx="12" fill="url(#metallicF)" />
  <rect x="200" y="160" width="120" height="34" rx="12" fill="url(#metallicF)" />
  <rect x="200" y="240" width="85" height="30" rx="10" fill="url(#metallicF)" />
  <circle cx="340" cy="177" r="12" fill="#34d399" filter="url(#neonShadow)" />
  <circle cx="300" cy="255" r="8" fill="#6ee7b7" />
  <path d="M 370 200 L 380 215 L 395 220 L 380 225 L 370 240 L 360 225 L 345 220 L 360 215 Z" fill="#10b981" opacity="0.9" />
  <path d="M 160 340 L 165 350 L 175 352 L 165 355 L 160 365 L 155 355 L 145 352 L 155 350 Z" fill="#34d399" opacity="0.8" />
  <path d="M 120 280 Q 200 420 380 320" fill="none" stroke="url(#aiGlow)" stroke-width="8" stroke-linecap="round" opacity="0.75" />
</svg>
